<svg width="36" height="36" viewBox="0 0 36 36" fill="none" xmlns="http://www.w3.org/2000/svg">
<path d="M18 0C21.5601 0 25.0402 1.05568 28.0003 3.03355C30.9604 5.01141 33.2675 7.82263 34.6298 11.1117C35.9922 14.4008 36.3487 18.02 35.6541 21.5116C34.9596 25.0033 33.2453 28.2106 30.7279 30.7279C28.2106 33.2453 25.0033 34.9596 21.5116 35.6541C18.02 36.3487 14.4008 35.9922 11.1117 34.6298C7.82263 33.2675 5.01141 30.9604 3.03355 28.0003C1.05568 25.0402 0 21.5601 0 18C0 13.2261 1.89642 8.64773 5.27208 5.27208C8.64773 1.89642 13.2261 0 18 0V0Z" fill="white" fill-opacity="0.98"/>
<path fill-rule="evenodd" clip-rule="evenodd" d="M18 13.396L17.155 12.527C16.6534 12.0651 16.052 11.7253 15.3976 11.5339C14.7432 11.3425 14.0534 11.3047 13.382 11.4236C12.7106 11.5424 12.0757 11.8146 11.5268 12.219C10.9778 12.6234 10.5296 13.149 10.217 13.755C9.601 14.961 9.461 16.703 10.587 18.926C11.672 21.067 13.929 23.626 18 26.426C22.071 23.633 24.327 21.07 25.413 18.926C26.539 16.702 26.401 14.961 25.783 13.755C25.4707 13.1489 25.0228 12.6231 24.474 12.2185C23.9252 11.8139 23.2904 11.5415 22.619 11.4224C21.9477 11.3034 21.2579 11.341 20.6035 11.5322C19.9491 11.7235 19.3476 12.0632 18.846 12.525L18 13.396ZM18 27.845C-0.0819979 15.896 12.432 6.57001 17.793 11.503C17.864 11.568 17.933 11.635 18.001 11.703C18.0677 11.6363 18.137 11.5697 18.209 11.503C23.566 6.56801 36.082 15.894 18 27.844V27.845Z" fill="#F56969"/>
</svg>
