<svg width="20" height="19" viewBox="0 0 20 19" fill="none" xmlns="http://www.w3.org/2000/svg">
<path d="M10 0C11.5913 0 13.1174 0.632141 14.2426 1.75736C15.3679 2.88258 16 4.4087 16 6V7H20V9H18.833L18.076 18.083C18.0552 18.3329 17.9413 18.5658 17.7568 18.7357C17.5723 18.9055 17.3308 18.9999 17.08 19H2.92C2.66925 18.9999 2.4277 18.9055 2.24322 18.7357C2.05875 18.5658 1.94481 18.3329 1.924 18.083L1.166 9H0V7H4V6C4 4.4087 4.63214 2.88258 5.75736 1.75736C6.88258 0.632141 8.4087 0 10 0ZM11 11H9V15H11V11ZM7 11H5V15H7V11ZM15 11H13V15H15V11ZM10 2C8.97376 2 7.98677 2.39444 7.24319 3.10172C6.4996 3.80901 6.05631 4.77504 6.005 5.8L6 6V7H14V6C14 4.97376 13.6056 3.98677 12.8983 3.24319C12.191 2.4996 11.225 2.05631 10.2 2.005L10 2Z" fill="#495057"/>
</svg>
